<svg width="16" height="16" viewBox="0 0 16 16" fill="none" xmlns="http://www.w3.org/2000/svg">
<!-- <path d="M10.54 2.65667H12.0007V0.112667C11.7487 0.078 10.882 0 9.87267 0C7.76667 0 6.324 1.32467 6.324 3.75933V6H4V8.844H6.324V16H9.17333V8.84467H11.4033L11.7573 6.00067H9.17267V4.04133C9.17333 3.21933 9.39467 2.65667 10.54 2.65667V2.65667Z" fill="white"/> -->
<svg xmlns="http://www.w3.org/2000/svg" x="0px" y="0px" width="16" height="16" viewBox="0,0,256,256"
style="fill:#000000;">
<g fill="#ffffff" fill-rule="nonzero" stroke="none" stroke-width="1" stroke-linecap="butt" stroke-linejoin="miter" stroke-miterlimit="10" stroke-dasharray="" stroke-dashoffset="0" font-family="none" font-weight="none" font-size="none" text-anchor="none" style="mix-blend-mode: normal"><g transform="scale(5.12,5.12)"><path d="M5.91992,6l14.66211,21.375l-14.35156,16.625h3.17969l12.57617,-14.57812l10,14.57813h12.01367l-15.31836,-22.33008l13.51758,-15.66992h-3.16992l-11.75391,13.61719l-9.3418,-13.61719zM9.7168,8h7.16406l23.32227,34h-7.16406z"></path></g></g>
</svg>
</svg>
